<svg xmlns="http://www.w3.org/2000/svg" xmlns:xlink="http://www.w3.org/1999/xlink" xml:space="preserve" version="1.1" style="shape-rendering:geometricPrecision;text-rendering:geometricPrecision;image-rendering:optimizeQuality;" viewBox="0 0 197177 209131.25" x="0px" y="0px" fill-rule="evenodd" clip-rule="evenodd"><defs><style type="text/css">
   
    .fil0 {fill:black}
   
  </style></defs><g><path class="fil0" d="M9034 0l179108 0c4970,0 9035,4065 9035,9035l0 108770c0,4969 -4065,9035 -9035,9035l-179108 0c-4969,0 -9034,-4066 -9034,-9035l0 -108770c0,-4970 4065,-9035 9034,-9035zm23685 25435l-3985 0 0 4031 3985 0 0 -4031zm69910 50594l6385 0 0 16556 -6385 0 0 -16556zm-7610 -31751l0 51623 73423 0 0 1645 -74245 0 -824 1 0 -823 0 -52446 1646 0zm49227 -24537l6384 0 0 72844 -6384 0 0 -72844zm-13873 25585l6386 0 0 47259 -6386 0 0 -47259zm-13872 11138l6385 0 0 36121 -6385 0 0 -36121zm-83782 -1654l-3985 0 0 4031 3985 0 0 -4031zm5327 0l9798 0 0 4031 -9798 0 0 -4031zm-5327 -9792l-3985 0 0 4032 3985 0 0 -4032zm5327 0l24767 0 0 4032 -24767 0 0 -4032zm-5327 -9792l-3985 0 0 4032 3985 0 0 -4032zm5327 0l34076 0 0 4032 -34076 0 0 -4032zm0 -9791l39011 0 0 4031 -39011 0 0 -4031zm28097 133508l65223 0c1393,0 2465,1142 2532,2533l279 5829 -70287 0 -280 -5829c-66,-1392 1141,-2533 2533,-2533zm14284 -27597l36323 0 0 5098c557,7412 4524,15493 8118,16939l-51950 0c3593,-1446 6952,-9527 7509,-16939l0 -5098zm18162 -17041c2073,0 3753,1680 3753,3754 0,2074 -1680,3754 -3753,3754 -2074,0 -3755,-1680 -3755,-3754 0,-2074 1681,-3754 3755,-3754zm-88033 -106455l176065 0 0 101587 -176065 0 0 -101587z"/></g><text x="0" y="167320" fill="#000000" font-size="5px" font-weight="bold" font-family="'Helvetica Neue', Helvetica, Arial-Unicode, Arial, Sans-serif">Created by popcornarts</text><text x="0" y="167325" fill="#000000" font-size="5px" font-weight="bold" font-family="'Helvetica Neue', Helvetica, Arial-Unicode, Arial, Sans-serif">from the Noun Project</text></svg>